<svg width="151" height="150" viewBox="0 0 151 150" fill="none" xmlns="http://www.w3.org/2000/svg">
<path fill-rule="evenodd" clip-rule="evenodd" d="M49.7311 9.70933H82.0367C82.8131 9.70933 83.4315 9.35073 83.8238 8.67603L86.9706 3.22241H44.7939L47.9407 8.67603C48.3318 9.35073 48.9485 9.70933 49.7308 9.70933H49.7311Z" fill="#2E3760"/>
<path fill-rule="evenodd" clip-rule="evenodd" d="M74.8064 49.7669H70.1931C68.8984 49.7669 67.8496 48.7181 67.8496 47.4234C67.8496 46.1288 68.8984 45.08 70.1931 45.08H74.8064C76.1025 45.08 77.1514 46.1288 77.1514 47.4234C77.1514 48.7181 76.1025 49.7669 74.8064 49.7669ZM74.8064 104.919H70.1931C68.8984 104.919 67.8496 103.87 67.8496 102.575C67.8496 101.28 68.8984 100.232 70.1931 100.232H74.8064C76.1025 100.232 77.1514 101.28 77.1514 102.575C77.1514 103.87 76.1025 104.919 74.8064 104.919ZM73.7055 132.669C73.7055 134.405 72.2852 135.825 70.5476 135.825H61.2218C59.4853 135.825 58.0639 134.405 58.0639 132.669C58.0639 130.932 59.4853 129.512 61.2218 129.512H70.5476C72.2854 129.512 73.7055 130.933 73.7055 132.669ZM55.2177 102.575V97.9614C55.2177 96.6668 56.265 95.6165 57.5611 95.6165C58.8572 95.6165 59.9043 96.6668 59.9043 97.9614V100.231H62.1742C63.4688 100.231 64.5177 101.28 64.5177 102.575C64.5177 103.869 63.4688 104.918 62.1742 104.918H57.5608C56.2647 104.918 55.2174 103.869 55.2174 102.575L55.2177 102.575ZM55.2177 85.3266C55.2177 84.0319 56.265 82.9831 57.5611 82.9831C58.8572 82.9831 59.9043 84.0319 59.9043 85.3266V89.9399C59.9043 91.2346 58.8555 92.2849 57.5611 92.2849C56.2668 92.2849 55.2177 91.2346 55.2177 89.9399V85.3266ZM55.2177 72.6917C55.2177 71.3985 56.265 70.3482 57.5611 70.3482C58.8572 70.3482 59.9043 71.3985 59.9043 72.6917V77.3065C59.9043 78.6012 58.8555 79.65 57.5611 79.65C56.2668 79.65 55.2177 78.6012 55.2177 77.3065V72.6917ZM55.2177 60.0583C55.2177 58.7637 56.265 57.7148 57.5611 57.7148C58.8572 57.7148 59.9043 58.7637 59.9043 60.0583V64.6731C59.9043 65.9663 58.8555 67.0166 57.5611 67.0166C56.2668 67.0166 55.2177 65.9663 55.2177 64.6731V60.0583ZM55.2177 47.4234C55.2177 46.1288 56.265 45.08 57.5611 45.08H62.1745C63.4691 45.08 64.518 46.1288 64.518 47.4234C64.518 48.7181 63.4691 49.7669 62.1745 49.7669H59.9046V52.0383C59.9046 53.3329 58.8558 54.3817 57.5614 54.3817C56.2671 54.3817 55.218 53.3329 55.218 52.0383L55.2177 47.4234ZM97.7685 20.7349H106.627V13.2768C106.627 7.74697 102.104 3.22266 96.5755 3.22266H92.3854L87.8863 11.0194C86.6611 13.1341 84.4756 14.395 82.0375 14.395H49.7318C47.2882 14.395 45.107 13.1344 43.8845 11.0194L39.3824 3.22266H35.1953C29.667 3.22266 25.1409 7.74727 25.1409 13.2768V29.2037L33.1539 34.9128V63.7811L34.7942 65.6162V76.8647C41.8923 81.2777 46.3223 89.0845 46.3223 97.6099C46.3223 109.998 37.0938 120.231 25.1406 121.82V136.723C25.1406 142.253 29.6638 146.778 35.195 146.778H96.5752C102.104 146.778 106.627 142.253 106.627 136.723V129.264H97.7682C90.5485 129.264 84.642 123.357 84.642 116.137V104.919H82.8279C81.5333 104.919 80.4845 103.87 80.4845 102.575C80.4845 101.28 81.5333 100.232 82.8279 100.232H84.642V85.7616C84.642 81.3217 86.8753 77.3786 90.2761 75C86.8753 72.6211 84.642 68.6783 84.642 64.2369V49.7669H82.8279C81.5333 49.7669 80.4845 48.7181 80.4845 47.4234C80.4845 46.1288 81.5333 45.08 82.8279 45.08H84.642V33.8625C84.642 26.6414 90.5485 20.7349 97.7682 20.7349H97.7685Z" fill="#2E3760"/>
<path fill-rule="evenodd" clip-rule="evenodd" d="M132.647 103.479C132.647 105.125 132.252 106.614 131.412 108.03C129.108 111.909 123.37 114.963 119.084 117.554C114.798 114.963 109.059 111.91 106.755 108.03C105.915 106.614 105.52 105.125 105.52 103.479V90.1761C109.521 88.8759 113.746 86.9066 119.084 84.3458C124.421 86.9066 128.647 88.8759 132.648 90.1761L132.647 103.479ZM140.399 77.3435H97.7678C93.1386 77.3435 89.3496 81.1313 89.3496 85.7617V116.138C89.3496 120.768 93.1386 124.556 97.7678 124.556H140.399C145.032 124.556 148.82 120.768 148.82 116.138V85.7617C148.82 81.1313 145.032 77.3435 140.399 77.3435Z" fill="#49C22E"/>
<path fill-rule="evenodd" clip-rule="evenodd" d="M21.8978 108.599C18.4434 108.599 15.6452 105.8 15.6452 102.346C15.6452 98.8931 18.4434 96.0938 21.8978 96.0938C25.3521 96.0938 28.1488 98.8934 28.1488 102.346C28.1488 105.799 25.348 108.599 21.8978 108.599ZM30.0859 79.6711V67.413L28.4441 65.5764V37.3392L21.898 32.6733L15.3464 37.3392V42.4453L20.7845 46.0099L15.3464 49.5744V50.7094L20.7845 54.2739L15.3464 57.8399V65.5761L13.7087 67.4127V79.6708C6.90566 82.7795 2.18066 89.6432 2.18066 97.6096C2.18066 108.498 11.0081 117.326 21.898 117.326C32.788 117.326 41.6113 108.498 41.6113 97.6096C41.6113 89.6432 36.8849 82.7795 30.0862 79.6708L30.0859 79.6711Z" fill="#509BE6"/>
<path fill-rule="evenodd" clip-rule="evenodd" d="M124.745 39.992C124.745 38.4375 124.105 37.023 123.081 35.9968C122.051 34.9705 120.64 34.3324 119.084 34.3324C117.528 34.3324 116.116 34.9705 115.09 35.9968C114.062 37.023 113.423 38.4375 113.423 39.992V43.9532H124.745V39.992Z" fill="#E69150"/>
<path fill-rule="evenodd" clip-rule="evenodd" d="M133.196 61.9711C133.196 63.8036 131.696 65.3027 129.865 65.3027H108.302C106.471 65.3027 104.971 63.8036 104.971 61.9711V47.2837C104.971 45.4512 106.471 43.9532 108.302 43.9532H108.736V39.992C108.736 37.1446 109.902 34.5568 111.774 32.6821C113.65 30.8089 116.236 29.6455 119.084 29.6455C121.931 29.6455 124.519 30.8089 126.393 32.6836C128.268 34.5568 129.432 37.1446 129.432 39.992V43.9532H129.865C131.696 43.9532 133.196 45.4512 133.196 47.2837V61.9711ZM140.399 25.4429H97.7678C93.1386 25.4429 89.3496 29.2318 89.3496 33.8625V64.2372C89.3496 68.8676 93.1386 72.6568 97.7678 72.6568H140.399C145.032 72.6568 148.82 68.8679 148.82 64.2372V33.8625C148.82 29.2321 145.032 25.4429 140.399 25.4429Z" fill="#E69150"/>
<path fill-rule="evenodd" clip-rule="evenodd" d="M119.083 48.7122C121.081 48.7122 122.701 50.3329 122.701 52.3303C122.701 53.6686 121.974 54.8361 120.894 55.463V58.7326C120.894 59.7278 120.08 60.5425 119.083 60.5425C118.086 60.5425 117.272 59.7281 117.272 58.7326V55.463C116.195 54.8364 115.465 53.6689 115.465 52.3303C115.465 50.3326 117.086 48.7122 119.083 48.7122Z" fill="#E69150"/>
</svg>
