<svg width="20" height="20" viewBox="0 0 20 20" fill="none" xmlns="http://www.w3.org/2000/svg">
<path d="M10.0005 18.1251C13.7685 16.8263 16.4543 13.8071 16.8755 9.96297C16.9922 8.29422 16.9826 6.61922 16.846 4.95172C16.828 4.68889 16.7127 4.4422 16.5225 4.25989C16.3323 4.07757 16.081 3.97274 15.8176 3.96589C14.113 3.91339 12.1318 3.62922 10.601 2.1213C10.4411 1.96341 10.2254 1.87488 10.0007 1.87488C9.77605 1.87488 9.56041 1.96341 9.40054 2.1213C7.86929 3.62922 5.88804 3.91339 4.18387 3.96589C3.92051 3.97274 3.66918 4.07757 3.47901 4.25989C3.28883 4.4422 3.17349 4.68889 3.15554 4.95172C3.01886 6.61897 3.00883 8.2942 3.12554 9.96297C3.5472 13.8071 6.23262 16.8263 10.0005 18.1251Z" stroke="#3A3939" stroke-linecap="round" stroke-linejoin="round"/>
<path d="M7.33807 8.25169H12.6614C12.8631 8.25169 13.0268 8.41502 13.0268 8.6171V12.5513C13.0268 12.6482 12.9883 12.7411 12.9198 12.8097C12.8513 12.8782 12.7583 12.9167 12.6614 12.9167H7.33807C7.24116 12.9167 7.14821 12.8782 7.07968 12.8097C7.01116 12.7411 6.97266 12.6482 6.97266 12.5513V8.61669C6.97266 8.4146 7.13641 8.25085 7.33807 8.25085" stroke="#3A3939" stroke-linecap="round" stroke-linejoin="round"/>
<path d="M7.99609 8.2517V7.41253C8.00678 6.88873 8.22237 6.38999 8.59659 6.02332C8.97081 5.65666 9.47385 5.45129 9.99776 5.45129C10.5217 5.45129 11.0247 5.65666 11.3989 6.02332C11.7732 6.38999 11.9887 6.88873 11.9994 7.41253V8.2517" stroke="#3A3939" stroke-linecap="round" stroke-linejoin="round"/>
<path d="M9.99891 11.3604C10.4276 11.3604 10.7752 11.0128 10.7752 10.5841C10.7752 10.1554 10.4276 9.80786 9.99891 9.80786C9.5702 9.80786 9.22266 10.1554 9.22266 10.5841C9.22266 11.0128 9.5702 11.3604 9.99891 11.3604Z" stroke="#3A3939" stroke-linecap="round" stroke-linejoin="round"/>
</svg>
