<svg width="24" height="24" viewBox="0 0 24 24" fill="none" xmlns="http://www.w3.org/2000/svg">
<path fill-rule="evenodd" clip-rule="evenodd" d="M7.25004 6.63098V5.46098C7.25018 5.042 7.40063 4.63698 7.67405 4.31952C7.94747 4.00206 8.32571 3.79323 8.74004 3.73098L9.96004 3.54798C11.3125 3.34582 12.6876 3.34582 14.04 3.54798L15.26 3.73098C15.6744 3.79323 16.0526 4.00206 16.326 4.31952C16.5995 4.63698 16.7499 5.042 16.75 5.46098V6.63098L18.464 6.76898C19.1017 6.8205 19.7038 7.08434 20.1738 7.51834C20.6439 7.95233 20.9549 8.53141 21.057 9.16298C21.5228 12.0356 21.5228 14.9644 21.057 17.837C20.9549 18.4685 20.6439 19.0476 20.1738 19.4816C19.7038 19.9156 19.1017 20.1795 18.464 20.231L16.592 20.381C13.5357 20.628 10.4644 20.628 7.40804 20.381L5.53604 20.231C4.89834 20.1795 4.29633 19.9156 3.82626 19.4816C3.35619 19.0476 3.04521 18.4685 2.94304 17.837C2.47732 14.9644 2.47732 12.0356 2.94304 9.16298C3.04541 8.53159 3.35648 7.95274 3.82653 7.51895C4.29658 7.08515 4.89848 6.82145 5.53604 6.76998L7.25004 6.63098ZM10.183 5.03098C11.3877 4.85105 12.6124 4.85105 13.817 5.03098L15.037 5.21398C15.0962 5.22284 15.1503 5.25263 15.1894 5.29796C15.2285 5.34328 15.25 5.40113 15.25 5.46098V6.52598C13.0851 6.40234 10.9149 6.40234 8.75004 6.52598V5.45998C8.7501 5.40013 8.77163 5.34228 8.81071 5.29696C8.8498 5.25163 8.90385 5.22184 8.96304 5.21298L10.183 5.03098ZM7.52904 8.11298C10.505 7.87298 13.495 7.87298 16.471 8.11298L18.343 8.26498C18.6464 8.28925 18.9328 8.41457 19.1566 8.62088C19.3803 8.82719 19.5283 9.10258 19.577 9.40298C19.639 9.78764 19.6924 10.1736 19.737 10.561C17.3299 11.7458 14.6829 12.3619 12 12.3619C9.31717 12.3619 6.67013 11.7458 4.26304 10.561C4.30704 10.1743 4.36037 9.78831 4.42304 9.40298C4.47175 9.10258 4.6198 8.82719 4.84352 8.62088C5.06724 8.41457 5.35369 8.28925 5.65704 8.26498L7.52904 8.11298ZM4.12904 12.157C6.60092 13.2806 9.28475 13.862 12 13.862C14.7153 13.862 17.3992 13.2806 19.871 12.157C19.9668 13.9756 19.8683 15.7993 19.577 17.597C19.5285 17.8976 19.3806 18.1732 19.1568 18.3797C18.9331 18.5862 18.6465 18.7117 18.343 18.736L16.471 18.886C13.495 19.126 10.505 19.126 7.52904 18.886L5.65704 18.736C5.35354 18.7117 5.06698 18.5862 4.84325 18.3797C4.61951 18.1732 4.47154 17.8976 4.42304 17.597C4.13204 15.797 4.03304 13.973 4.12904 12.157Z" fill="#475569"/>
</svg>
