<svg width="20" height="20" viewBox="0 0 20 20" fill="none" xmlns="http://www.w3.org/2000/svg">
<path d="M13.0012 5.19995C13.0012 5.9956 12.6851 6.75866 12.1225 7.32127C11.5599 7.88388 10.7968 8.19995 10.0012 8.19995C9.2055 8.19995 8.44244 7.88388 7.87983 7.32127C7.31722 6.75866 7.00115 5.9956 7.00115 5.19995C7.00115 4.4043 7.31722 3.64124 7.87983 3.07863C8.44244 2.51602 9.2055 2.19995 10.0012 2.19995C10.7968 2.19995 11.5599 2.51602 12.1225 3.07863C12.6851 3.64124 13.0012 4.4043 13.0012 5.19995ZM4.00195 16.4944C4.02766 14.9202 4.67102 13.4193 5.79329 12.3152C6.91557 11.2111 8.42682 10.5923 10.0012 10.5923C11.5755 10.5923 13.0867 11.2111 14.209 12.3152C15.3313 13.4193 15.9746 14.9202 16.0004 16.4944C14.1183 17.3574 12.0717 17.8028 10.0012 17.8C7.86035 17.8 5.82835 17.3328 4.00195 16.4944Z" stroke="#0F172A" stroke-width="1.2" stroke-linecap="round" stroke-linejoin="round"/>
</svg>
