<svg width="20" height="20" viewBox="0 0 20 20" fill="none" xmlns="http://www.w3.org/2000/svg">
<path d="M9.95768 15C10.2493 15 10.496 14.8991 10.6977 14.6975C10.8994 14.4958 10.9999 14.2494 10.9993 13.9583C10.9988 13.6672 10.8982 13.4205 10.6977 13.2183C10.4971 13.0161 10.2505 12.9155 9.95768 12.9166C9.66491 12.9177 9.41852 13.0186 9.21852 13.2191C9.01852 13.4197 8.91768 13.6661 8.91602 13.9583C8.91435 14.2505 9.01518 14.4972 9.21852 14.6983C9.42185 14.8994 9.66824 15 9.95768 15ZM9.20768 11.7916H10.7493C10.7493 11.3333 10.8016 10.9722 10.906 10.7083C11.0105 10.4444 11.3055 10.0833 11.791 9.62496C12.1521 9.26385 12.4368 8.91996 12.6452 8.5933C12.8535 8.26663 12.9577 7.87441 12.9577 7.41663C12.9577 6.63885 12.673 6.04163 12.1035 5.62496C11.5341 5.2083 10.8605 4.99996 10.0827 4.99996C9.29102 4.99996 8.64879 5.2083 8.15602 5.62496C7.66324 6.04163 7.31935 6.54163 7.12435 7.12496L8.49935 7.66663C8.56879 7.41663 8.72518 7.1458 8.96852 6.85413C9.21185 6.56246 9.58324 6.41663 10.0827 6.41663C10.5271 6.41663 10.8605 6.5383 11.0827 6.78163C11.3049 7.02496 11.416 7.29219 11.416 7.5833C11.416 7.86107 11.3327 8.12163 11.166 8.36496C10.9993 8.6083 10.791 8.83385 10.541 9.04163C9.9299 9.5833 9.55491 9.99302 9.41602 10.2708C9.27713 10.5486 9.20768 11.0555 9.20768 11.7916ZM9.99935 18.3333C8.84657 18.3333 7.76324 18.1147 6.74935 17.6775C5.73546 17.2402 4.85352 16.6464 4.10352 15.8958C3.35352 15.1452 2.75991 14.2633 2.32268 13.25C1.88546 12.2366 1.66657 11.1533 1.66602 9.99996C1.66546 8.84663 1.88435 7.7633 2.32268 6.74996C2.76102 5.73663 3.35463 4.85469 4.10352 4.10413C4.85241 3.35357 5.73435 2.75996 6.74935 2.3233C7.76435 1.88663 8.84768 1.66774 9.99935 1.66663C11.151 1.66552 12.2343 1.88441 13.2493 2.3233C14.2643 2.76219 15.1463 3.3558 15.8952 4.10413C16.6441 4.85246 17.238 5.73441 17.6768 6.74996C18.1157 7.76552 18.3344 8.84885 18.3327 9.99996C18.331 11.1511 18.1121 12.2344 17.676 13.25C17.2399 14.2655 16.6463 15.1475 15.8952 15.8958C15.1441 16.6441 14.2621 17.238 13.2493 17.6775C12.2366 18.1169 11.1532 18.3355 9.99935 18.3333ZM9.99935 16.6666C11.8605 16.6666 13.4368 16.0208 14.7285 14.7291C16.0202 13.4375 16.666 11.8611 16.666 9.99996C16.666 8.13885 16.0202 6.56246 14.7285 5.2708C13.4368 3.97913 11.8605 3.3333 9.99935 3.3333C8.13824 3.3333 6.56185 3.97913 5.27018 5.2708C3.97852 6.56246 3.33268 8.13885 3.33268 9.99996C3.33268 11.8611 3.97852 13.4375 5.27018 14.7291C6.56185 16.0208 8.13824 16.6666 9.99935 16.6666Z" fill="#475569"/>
</svg>
