<svg width="20" height="20" viewBox="0 0 20 20" fill="none" xmlns="http://www.w3.org/2000/svg">
<path d="M7.99411 3.28333C8.06911 2.83167 8.46078 2.5 8.91911 2.5H11.0799C11.5383 2.5 11.9299 2.83167 12.0049 3.28333L12.1824 4.35083C12.2349 4.6625 12.4433 4.9225 12.7199 5.07583C12.7816 5.10917 12.8424 5.145 12.9033 5.18167C13.1741 5.345 13.5033 5.39583 13.7991 5.285L14.8133 4.905C15.0211 4.82684 15.2499 4.82498 15.459 4.89976C15.6681 4.97454 15.8438 5.1211 15.9549 5.31333L17.0349 7.18583C17.1458 7.37809 17.1849 7.60344 17.1452 7.8218C17.1056 8.04017 16.9897 8.23737 16.8183 8.37833L15.9824 9.0675C15.7383 9.26833 15.6174 9.57833 15.6241 9.89417C15.6253 9.965 15.6253 10.0358 15.6241 10.1067C15.6174 10.4217 15.7383 10.7317 15.9824 10.9325L16.8191 11.6217C17.1724 11.9133 17.2641 12.4175 17.0358 12.8133L15.9541 14.6858C15.8432 14.878 15.6676 15.0246 15.4587 15.0996C15.2498 15.1745 15.0211 15.1729 14.8133 15.095L13.7991 14.715C13.5033 14.6042 13.1741 14.655 12.9024 14.8183C12.842 14.8551 12.7809 14.8906 12.7191 14.925C12.4433 15.0775 12.2349 15.3375 12.1824 15.6492L12.0049 16.7167C11.9299 17.1692 11.5383 17.5 11.0799 17.5H8.91828C8.45995 17.5 8.06911 17.1683 7.99328 16.7167L7.81578 15.6492C7.76411 15.3375 7.55578 15.0775 7.27911 14.9242C7.21732 14.8901 7.1562 14.8548 7.09578 14.8183C6.82495 14.655 6.49578 14.6042 6.19911 14.715L5.18495 15.095C4.97722 15.1729 4.74858 15.1747 4.5397 15.0999C4.33081 15.0251 4.15521 14.8787 4.04411 14.6867L2.96328 12.8142C2.8524 12.6219 2.81332 12.3966 2.85299 12.1782C2.89267 11.9598 3.00852 11.7626 3.17995 11.6217L4.01661 10.9325C4.25995 10.7325 4.38078 10.4217 4.37495 10.1067C4.37364 10.0358 4.37364 9.96499 4.37495 9.89417C4.38078 9.5775 4.25995 9.26833 4.01661 9.0675L3.17995 8.37833C3.00873 8.23741 2.89301 8.04036 2.85334 7.82219C2.81367 7.60401 2.85263 7.37884 2.96328 7.18667L4.04411 5.31417C4.1551 5.12178 4.33079 4.97505 4.53987 4.90011C4.74896 4.82518 4.97785 4.82691 5.18578 4.905L6.19911 5.285C6.49578 5.39583 6.82495 5.345 7.09578 5.18167C7.15578 5.145 7.21745 5.11 7.27911 5.075C7.55578 4.9225 7.76411 4.6625 7.81578 4.35083L7.99411 3.28333Z" stroke="#475569" stroke-width="1.5" stroke-linecap="round" stroke-linejoin="round"/>
<path d="M12.5 10C12.5 10.663 12.2366 11.2989 11.7678 11.7678C11.2989 12.2366 10.663 12.5 10 12.5C9.33696 12.5 8.70107 12.2366 8.23223 11.7678C7.76339 11.2989 7.5 10.663 7.5 10C7.5 9.33696 7.76339 8.70107 8.23223 8.23223C8.70107 7.76339 9.33696 7.5 10 7.5C10.663 7.5 11.2989 7.76339 11.7678 8.23223C12.2366 8.70107 12.5 9.33696 12.5 10Z" stroke="#475569" stroke-width="1.5" stroke-linecap="round" stroke-linejoin="round"/>
</svg>
