<svg width="179" height="150" viewBox="0 0 179 150" fill="none" xmlns="http://www.w3.org/2000/svg">
<g clip-path="url(#clip0_270_4279)">
<path d="M37.294 73.5294C57.5986 73.5294 74.0587 57.0693 74.0587 36.7647C74.0587 16.4601 57.5986 0 37.294 0C16.9894 0 0.529297 16.4601 0.529297 36.7647C0.529297 57.0693 16.9894 73.5294 37.294 73.5294Z" fill="url(#paint0_linear_270_4279)"/>
<path d="M50.6909 56.8704C51.4008 56.8699 52.1004 56.7003 52.7319 56.3759C53.3634 56.0514 53.9085 55.5813 54.3223 55.0045C54.7361 54.4276 55.0067 53.7605 55.1117 53.0584C55.2167 52.3562 55.153 51.6392 54.926 50.9665C53.6875 47.2705 51.3189 44.0571 48.1548 41.7804C44.9908 39.5037 41.1913 38.2788 37.2933 38.2788C33.3953 38.2788 29.5958 39.5037 26.4318 41.7804C23.2678 44.0571 20.8991 47.2705 19.6606 50.9665C19.4336 51.6392 19.37 52.3562 19.475 53.0584C19.5799 53.7605 19.8505 54.4276 20.2643 55.0045C20.6781 55.5813 21.2233 56.0514 21.8547 56.3759C22.4862 56.7003 23.1858 56.8699 23.8957 56.8704H50.6909Z" fill="white"/>
<path d="M37.2924 34.8806C42.3241 34.8806 46.4031 30.8015 46.4031 25.7698C46.4031 20.7381 42.3241 16.6591 37.2924 16.6591C32.2607 16.6591 28.1816 20.7381 28.1816 25.7698C28.1816 30.8015 32.2607 34.8806 37.2924 34.8806Z" fill="white"/>
</g>
<g clip-path="url(#clip1_270_4279)">
<path d="M87.294 111.765C107.599 111.765 124.059 95.3046 124.059 75.0001C124.059 54.6955 107.599 38.2354 87.294 38.2354C66.9894 38.2354 50.5293 54.6955 50.5293 75.0001C50.5293 95.3046 66.9894 111.765 87.294 111.765Z" fill="url(#paint1_linear_270_4279)"/>
<path d="M100.691 95.1058C101.401 95.1052 102.1 94.9357 102.732 94.6112C103.363 94.2868 103.909 93.8167 104.322 93.2398C104.736 92.6629 105.007 91.9959 105.112 91.2937C105.217 90.5916 105.153 89.8746 104.926 89.2019C103.688 85.5059 101.319 82.2925 98.1548 80.0158C94.9908 77.7391 91.1913 76.5142 87.2933 76.5142C83.3953 76.5142 79.5958 77.7391 76.4318 80.0158C73.2678 82.2925 70.8991 85.5059 69.6606 89.2019C69.4336 89.8746 69.37 90.5916 69.475 91.2937C69.5799 91.9959 69.8505 92.6629 70.2643 93.2398C70.6781 93.8167 71.2233 94.2868 71.8547 94.6112C72.4862 94.9357 73.1858 95.1052 73.8957 95.1058H100.691Z" fill="white"/>
<path d="M87.2924 73.1159C92.3241 73.1159 96.4031 69.0369 96.4031 64.0052C96.4031 58.9734 92.3241 54.8944 87.2924 54.8944C82.2607 54.8944 78.1816 58.9734 78.1816 64.0052C78.1816 69.0369 82.2607 73.1159 87.2924 73.1159Z" fill="white"/>
</g>
<g clip-path="url(#clip2_270_4279)">
<path d="M141.698 77.2441C121.845 77.2441 105.699 93.3976 105.699 113.251C105.699 133.088 121.845 149.227 141.698 149.227C161.551 149.227 177.697 133.089 177.697 113.251C177.697 93.3976 161.551 77.2441 141.698 77.2441ZM157.154 116.314H144.762V128.684C144.762 130.377 143.391 131.748 141.698 131.748C140.005 131.748 138.634 130.377 138.634 128.684V116.314H126.264C124.572 116.314 123.201 114.936 123.201 113.251C123.201 111.558 124.572 110.187 126.264 110.187H138.634V97.7864C138.634 96.0937 140.005 94.7227 141.698 94.7227C143.391 94.7227 144.762 96.0937 144.762 97.7864V110.187H157.154C158.847 110.187 160.218 111.558 160.218 113.251C160.218 114.936 158.847 116.314 157.154 116.314Z" fill="#49C22E"/>
</g>
<defs>
<linearGradient id="paint0_linear_270_4279" x1="11.2973" y1="10.768" x2="63.2907" y2="62.7614" gradientUnits="userSpaceOnUse">
<stop stop-color="#B3BDED"/>
<stop offset="0.432692" stop-color="#62B5F2"/>
<stop offset="1" stop-color="#2E3760"/>
</linearGradient>
<linearGradient id="paint1_linear_270_4279" x1="61.2973" y1="49.0034" x2="113.291" y2="100.997" gradientUnits="userSpaceOnUse">
<stop stop-color="#B3BDED"/>
<stop offset="0.432692" stop-color="#62B5F2"/>
<stop offset="1" stop-color="#2E3760"/>
</linearGradient>
<clipPath id="clip0_270_4279">
<rect width="73.5294" height="73.5294" fill="white" transform="translate(0.529297)"/>
</clipPath>
<clipPath id="clip1_270_4279">
<rect width="73.5294" height="73.5294" fill="white" transform="translate(50.5293 38.2354)"/>
</clipPath>
<clipPath id="clip2_270_4279">
<rect width="73.5294" height="73.5294" fill="white" transform="translate(104.941 76.4706)"/>
</clipPath>
</defs>
</svg>
