<svg width="151" height="150" viewBox="0 0 151 150" fill="none" xmlns="http://www.w3.org/2000/svg">
<path d="M122.924 100.651C109.332 100.651 98.2754 111.71 98.2754 125.306C98.2754 138.898 109.332 149.955 122.924 149.955C136.514 149.955 147.573 138.898 147.573 125.306C147.573 111.71 136.514 100.651 122.924 100.651ZM136.645 118.638L121.488 135.325C120.995 135.865 120.32 136.143 119.639 136.143C119.061 136.143 118.48 135.944 118.009 135.538L109.429 128.135C108.386 127.236 108.27 125.659 109.17 124.616C110.072 123.57 111.65 123.454 112.693 124.354L119.427 130.166L132.947 115.28C133.875 114.259 135.455 114.184 136.476 115.112C137.494 116.036 137.572 117.616 136.645 118.638Z" fill="#49C22E"/>
<path d="M133.215 27.5511L68.6449 0.247559L4.06258 27.5543C-0.725406 85.9061 20.4158 124.019 68.642 144.005C77.9461 140.144 86.3572 135.509 93.6905 130.206C93.4251 128.61 93.2812 126.977 93.2812 125.306C93.2812 108.959 106.58 95.6566 122.924 95.6566H122.955C131.944 77.1483 135.395 54.2549 133.215 27.5511ZM84.1488 112.579C83.165 113.544 81.5848 113.528 80.6197 112.544C68.8263 100.513 70.5565 87.2988 71.8216 77.6514C72.9803 68.797 72.8303 66.6639 68.6733 66.0422C68.0018 65.9423 66.9557 65.9361 65.625 67.0512C61.696 70.343 59.516 79.4224 59.4003 83.5793C59.1504 92.9584 63.9009 103.534 73.5237 115.009C74.4076 116.064 74.2702 117.638 73.2146 118.525C72.7462 118.919 72.1778 119.11 71.6124 119.11C70.9002 119.11 70.1912 118.807 69.6978 118.216C59.2661 105.78 54.1254 94.0799 54.4096 83.4451C54.5314 79.1068 56.7146 68.0007 62.4176 63.2221C64.5164 61.4669 66.9307 60.7327 69.4104 61.1045C73.6737 61.7417 76.2659 63.9686 77.1123 67.7165C77.7744 70.6523 77.3092 74.1973 76.7719 78.2979C75.5789 87.4116 74.0953 98.7521 84.1866 109.049C85.1514 110.033 85.1358 111.613 84.1488 112.579ZM92.9379 108.003C92.0478 109.052 90.4737 109.184 89.4211 108.29C78.1617 98.7489 79.5923 88.2671 80.8509 79.016C81.7347 72.5385 82.4968 66.9445 79.1018 62.1785C77.0968 59.3645 74.0391 57.6311 70.0195 57.0284C59.666 55.4763 54.5686 66.2171 52.8571 70.9081C51.3548 75.0621 50.3959 79.7062 50.2992 83.32C49.9931 94.4294 54.9123 106.395 64.9254 118.894C65.7873 119.972 65.6156 121.542 64.5381 122.405C64.079 122.773 63.5262 122.951 62.9795 122.951C62.2488 122.951 61.524 122.633 61.0307 122.017C50.2556 108.569 44.9678 95.504 45.3082 83.1858C45.4207 79.0037 46.4607 73.9099 48.1658 69.203C52.604 57.0316 61.0523 50.6385 70.7596 52.0907C76.0939 52.8902 80.3853 55.3764 83.1682 59.2805C87.7095 65.6581 86.7381 72.7916 85.7979 79.691C84.605 88.4423 83.4805 96.7128 92.6472 104.483C93.6999 105.373 93.8311 106.951 92.9379 108.003ZM99.3905 101.425C98.5254 102.5 96.9545 102.672 95.8799 101.81C90.6296 97.5899 88.8776 93.6703 89.1867 86.8336C89.3115 84.0601 89.6364 81.4116 89.9487 78.8537C90.9108 70.9986 91.7414 64.2149 86.5224 56.8942C83.0806 52.0594 77.8397 48.9894 71.3622 48.0149C57.4731 45.9381 48.2719 56.8693 44.296 67.7915C42.4471 72.8792 41.3133 78.448 41.1885 83.0736C40.8231 96.4225 46.4543 110.436 57.9228 124.729C58.7848 125.803 58.6131 127.374 57.5388 128.236C57.0765 128.608 56.5236 128.786 55.9772 128.786C55.2463 128.786 54.5218 128.467 54.0284 127.852C41.7978 112.613 35.7978 97.5029 36.1977 82.9359C36.3351 77.7981 37.5782 71.6549 39.6053 66.0829C44.2558 53.3089 55.2372 40.5598 72.1028 43.077C79.9547 44.2576 86.3449 48.0334 90.5894 53.9988C96.9357 62.8969 95.9054 71.3174 94.9057 79.4628C94.606 81.927 94.2937 84.4755 94.1751 87.0586C93.9407 92.2808 95.0247 94.7136 99.0067 97.9151C100.084 98.78 100.252 100.351 99.3905 101.425ZM102.204 67.5319C102.086 67.5475 101.967 67.5568 101.851 67.5568C100.627 67.5568 99.559 66.6574 99.3808 65.4111C98.6437 60.2265 96.8634 55.7104 93.9401 51.6094C89.0273 44.7132 81.6908 40.3562 72.7178 39.0038C68.3016 38.3446 63.7072 38.6666 59.4313 39.9378C45.8077 43.9919 39.0269 55.626 35.7351 64.674C35.2667 65.9701 33.8332 66.6355 32.5368 66.167C31.2407 65.6953 30.5722 64.2618 31.0438 62.9657C36.2472 48.6551 45.8232 38.7794 58.0069 35.1501C62.9792 33.6729 68.3229 33.2979 73.4578 34.0664C83.6552 35.603 92.3721 40.8032 98.0065 48.7113C101.405 53.4806 103.472 58.7121 104.325 64.7086C104.519 66.0732 103.569 67.3383 102.204 67.5319ZM104.85 46.909C103.729 47.7085 102.17 47.4463 101.367 46.3219C95.0739 37.4862 85.3764 31.6896 74.0639 29.9997C68.3329 29.1346 62.3768 29.55 56.8362 31.1991C47.9631 33.8382 40.5108 39.2353 34.6831 47.2371C34.1959 47.9086 33.4339 48.2645 32.6625 48.2645C32.1533 48.2645 31.638 48.1084 31.1947 47.7867C30.0797 46.9746 29.8359 45.4131 30.6448 44.298C37.1349 35.3906 45.4679 29.3719 55.4153 26.4111C61.6523 24.5561 68.3581 24.0905 74.8075 25.062C87.4693 26.9546 98.3475 33.4761 105.437 43.4268C106.237 44.5479 105.974 46.1062 104.85 46.909ZM106.418 34.1379C105.927 34.6471 105.272 34.9061 104.616 34.9061C103.994 34.9061 103.369 34.6749 102.885 34.2097C95.5207 27.145 86.0229 22.5724 75.4195 20.9859C68.3765 19.9304 61.0526 20.4425 54.2437 22.4695C49.9181 23.7533 45.8171 25.6022 42.0507 27.9694C40.8826 28.7033 39.3428 28.3535 38.6056 27.1854C37.8747 26.0174 38.2245 24.4775 39.3929 23.7437C43.5436 21.1327 48.063 19.0931 52.8228 17.6815C60.3278 15.4485 68.3985 14.8831 76.1599 16.0479C87.791 17.7876 98.2289 22.819 106.343 30.6056C107.339 31.5612 107.37 33.1418 106.418 34.1379Z" fill="#2E3760"/>
</svg>
